<svg xmlns="http://www.w3.org/2000/svg" width="162" height="162" viewBox="0 0 162 162" fill="none">
  <path d="M162 81C162 125.735 125.735 162 81 162C36.2649 162 0 125.735 0 81C0 36.2649 36.2649 0 81 0C125.735 0 162 36.2649 162 81ZM8.3793 81C8.3793 121.107 40.8927 153.621 81 153.621C121.107 153.621 153.621 121.107 153.621 81C153.621 40.8927 121.107 8.3793 81 8.3793C40.8927 8.3793 8.3793 40.8927 8.3793 81Z" fill="#F9FBFE"/>
  <path d="M154 81C154 121.317 121.317 154 81 154C40.6832 154 8 121.317 8 81C8 40.6832 40.6832 8 81 8C121.317 8 154 40.6832 154 81ZM15.5517 81C15.5517 117.146 44.8539 146.448 81 146.448C117.146 146.448 146.448 117.146 146.448 81C146.448 44.8539 117.146 15.5517 81 15.5517C44.8539 15.5517 15.5517 44.8539 15.5517 81Z" fill="#F0F4FD"/>
  <path d="M147 81C147 117.451 117.451 147 81 147C44.5492 147 15 117.451 15 81C15 44.5492 44.5492 15 81 15C117.451 15 147 44.5492 147 81ZM21.8276 81C21.8276 113.68 48.32 140.172 81 140.172C113.68 140.172 140.172 113.68 140.172 81C140.172 48.32 113.68 21.8276 81 21.8276C48.32 21.8276 21.8276 48.32 21.8276 81Z" fill="#E6EEFB"/>
</svg>