<svg xmlns="http://www.w3.org/2000/svg" width="31" height="31" viewBox="0 0 31 31" fill="none">
  <g opacity="0.2">
    <path d="M6.59961 24.4004C5.48555 23.2863 6.22422 20.9492 5.65508 19.5809C5.08594 18.2125 2.90625 17.0137 2.90625 15.5C2.90625 13.9863 5.06172 12.8359 5.65508 11.4191C6.24844 10.0023 5.48555 7.71367 6.59961 6.59961C7.71367 5.48555 10.0508 6.22422 11.4191 5.65508C12.7875 5.08594 13.9863 2.90625 15.5 2.90625C17.0137 2.90625 18.1641 5.06172 19.5809 5.65508C20.9977 6.24844 23.2863 5.48555 24.4004 6.59961C25.5145 7.71367 24.7758 10.0508 25.3449 11.4191C25.9141 12.7875 28.0938 13.9863 28.0938 15.5C28.0938 17.0137 25.9383 18.1641 25.3449 19.5809C24.7516 20.9977 25.5145 23.2863 24.4004 24.4004C23.2863 25.5145 20.9492 24.7758 19.5809 25.3449C18.2125 25.9141 17.0137 28.0938 15.5 28.0938C13.9863 28.0938 12.8359 25.9383 11.4191 25.3449C10.0023 24.7516 7.71367 25.5145 6.59961 24.4004Z" fill="#1A4982"/>
    <path d="M6.59961 24.4004C5.48555 23.2863 6.22422 20.9492 5.65508 19.5809C5.08594 18.2125 2.90625 17.0137 2.90625 15.5C2.90625 13.9863 5.06172 12.8359 5.65508 11.4191C6.24844 10.0023 5.48555 7.71367 6.59961 6.59961C7.71367 5.48555 10.0508 6.22422 11.4191 5.65508C12.7875 5.08594 13.9863 2.90625 15.5 2.90625C17.0137 2.90625 18.1641 5.06172 19.5809 5.65508C20.9977 6.24844 23.2863 5.48555 24.4004 6.59961C25.5145 7.71367 24.7758 10.0508 25.3449 11.4191C25.9141 12.7875 28.0938 13.9863 28.0938 15.5C28.0938 17.0137 25.9383 18.1641 25.3449 19.5809C24.7516 20.9977 25.5145 23.2863 24.4004 24.4004C23.2863 25.5145 20.9492 24.7758 19.5809 25.3449C18.2125 25.9141 17.0137 28.0938 15.5 28.0938C13.9863 28.0938 12.8359 25.9383 11.4191 25.3449C10.0023 24.7516 7.71367 25.5145 6.59961 24.4004Z" fill="white"/>
  </g>
  <path d="M20.8281 12.5937L13.7199 19.375L10.1719 15.9844M6.59961 24.4004C5.48555 23.2863 6.22422 20.9492 5.65508 19.5809C5.08594 18.2125 2.90625 17.0137 2.90625 15.5C2.90625 13.9863 5.06172 12.8359 5.65508 11.4191C6.24844 10.0023 5.48555 7.71367 6.59961 6.59961C7.71367 5.48555 10.0508 6.22422 11.4191 5.65508C12.7875 5.08594 13.9863 2.90625 15.5 2.90625C17.0137 2.90625 18.1641 5.06172 19.5809 5.65508C20.9977 6.24844 23.2863 5.48555 24.4004 6.59961C25.5145 7.71367 24.7758 10.0508 25.3449 11.4191C25.9141 12.7875 28.0937 13.9863 28.0937 15.5C28.0937 17.0137 25.9383 18.1641 25.3449 19.5809C24.7516 20.9977 25.5145 23.2863 24.4004 24.4004C23.2863 25.5145 20.9492 24.7758 19.5809 25.3449C18.2125 25.9141 17.0137 28.0937 15.5 28.0937C13.9863 28.0937 12.8359 25.9383 11.4191 25.3449C10.0023 24.7516 7.71367 25.5145 6.59961 24.4004Z" stroke="#1A4982" stroke-width="2" stroke-linecap="round" stroke-linejoin="round"/>
  <path d="M20.8281 12.5937L13.7199 19.375L10.1719 15.9844M6.59961 24.4004C5.48555 23.2863 6.22422 20.9492 5.65508 19.5809C5.08594 18.2125 2.90625 17.0137 2.90625 15.5C2.90625 13.9863 5.06172 12.8359 5.65508 11.4191C6.24844 10.0023 5.48555 7.71367 6.59961 6.59961C7.71367 5.48555 10.0508 6.22422 11.4191 5.65508C12.7875 5.08594 13.9863 2.90625 15.5 2.90625C17.0137 2.90625 18.1641 5.06172 19.5809 5.65508C20.9977 6.24844 23.2863 5.48555 24.4004 6.59961C25.5145 7.71367 24.7758 10.0508 25.3449 11.4191C25.9141 12.7875 28.0937 13.9863 28.0937 15.5C28.0937 17.0137 25.9383 18.1641 25.3449 19.5809C24.7516 20.9977 25.5145 23.2863 24.4004 24.4004C23.2863 25.5145 20.9492 24.7758 19.5809 25.3449C18.2125 25.9141 17.0137 28.0937 15.5 28.0937C13.9863 28.0937 12.8359 25.9383 11.4191 25.3449C10.0023 24.7516 7.71367 25.5145 6.59961 24.4004Z" stroke="white" stroke-opacity="0.2" stroke-width="2" stroke-linecap="round" stroke-linejoin="round"/>
</svg>