<svg width="48" height="56" viewBox="0 0 48 56" fill="none" xmlns="http://www.w3.org/2000/svg">
<path d="M44.4311 10.5822C40.3995 6.74202 35.6353 5.39636 30.1413 6.54519C27.9289 7.00832 25.8789 7.83425 23.9939 9.02039L23.8839 9.06412C23.7967 8.95992 23.7055 8.88016 23.6102 8.82355C21.1054 7.34796 18.3845 6.49502 15.4477 6.26217C12.0762 5.99587 8.99978 6.75618 6.21722 8.54438C5.6524 8.90845 4.67167 9.71636 3.27502 10.9707C5.01513 8.17645 7.32274 5.87495 10.1979 4.06616C17.0174 -0.224243 25.0713 -1.21999 32.7401 1.56009C37.3231 3.22222 41.0622 5.94183 43.9548 9.71636C44.1265 9.94021 44.2848 10.2297 44.4311 10.5834V10.5822Z" fill="#3AA5FF"/>
<path d="M44.4312 10.5823C46.6046 13.7561 47.7947 17.3466 47.9999 21.3579C47.9999 21.3836 47.9798 21.4055 47.9543 21.4068C47.9543 21.4068 47.953 21.4068 47.9516 21.4068H33.0246C32.9817 21.4068 32.9441 21.3785 32.9347 21.3386C31.8533 16.7806 29.4169 13.0382 25.6281 10.1115C25.117 9.71655 24.5723 9.35377 23.9954 9.02057C25.8804 7.83444 27.9304 7.00979 30.1428 6.54537C35.6368 5.39655 40.4009 6.74221 44.4325 10.5823H44.4312Z" fill="#237EFF"/>
<path d="M23.8841 9.06421C23.483 9.34466 23.0858 9.62897 22.6941 9.91843C18.8436 12.768 16.3562 16.3714 15.2279 20.7313C13.2905 28.2404 17.2779 35.94 23.9458 40.0413C19.6781 42.5667 14.5342 42.9282 10.0532 40.6948C8.7746 40.0593 7.52151 39.2102 6.29257 38.1476C4.84494 36.1741 3.54221 34.0836 2.38169 31.8786C-1.13608 25.1876 -0.689309 17.4173 3.27389 10.9708C4.67187 9.71644 5.6526 8.90854 6.21609 8.54446C8.99864 6.75626 12.0764 5.99595 15.4466 6.26225C18.3821 6.49511 21.1029 7.34805 23.6091 8.82364C23.7043 8.88024 23.7956 8.96 23.8828 9.06421H23.8841Z" fill="#5CD9FF"/>
<path d="M41.209 38.9645L41.2425 38.8295C41.2586 38.7626 41.2143 38.6957 41.1459 38.6802C41.1057 38.6712 41.0641 38.6802 41.0332 38.7073C36.6514 42.3994 30.9401 43.2151 25.591 40.8441C24.9872 40.5765 24.5203 40.2793 24.189 39.9526C25.5239 39.1498 26.73 38.2055 27.81 37.1223C30.5336 34.3886 32.2737 31.1685 33.0317 27.4609C33.0451 27.3953 33.088 27.3618 33.1591 27.3618H47.2987C47.3443 27.3618 47.3805 27.3965 47.3805 27.4403C47.3805 27.448 47.3805 27.4557 47.3778 27.4635C46.2186 31.6329 43.7205 35.4229 41.209 38.9658V38.9645Z" fill="#237EFF"/>
<path d="M6.29199 38.1477C7.52093 39.2103 8.77402 40.0594 10.0526 40.6949C14.5337 42.9295 19.6788 42.5681 23.9452 40.0414L24.1881 39.9526C24.5181 40.2794 24.9864 40.5766 25.5901 40.8442C30.9392 43.2151 36.6505 42.3995 41.0323 38.7073C41.086 38.6623 41.1665 38.6675 41.2135 38.7202C41.2403 38.7498 41.251 38.791 41.2416 38.8308L41.2081 38.9659C38.5892 42.5256 35.706 45.8769 32.5586 49.0223C30.8211 50.7552 28.8919 52.4276 26.768 54.0383C26.1844 54.4795 25.5981 54.8398 25.0092 55.1189C23.5374 55.8188 22.1112 54.7073 20.8367 53.7244C18.3681 51.8217 16.0054 49.6771 13.7501 47.2881C11.1232 44.5042 8.68816 41.5723 6.44494 38.4912C6.38054 38.4024 6.32822 38.2879 6.29065 38.149L6.29199 38.1477Z" fill="#2264FF"/>
</svg>
