<svg xmlns="http://www.w3.org/2000/svg" width="16" height="16" viewBox="0 0 16 16" fill="none">
  <path fill-rule="evenodd" clip-rule="evenodd" d="M12.6665 4.58191C13.0821 4.82186 13.3367 5.26666 13.3332 5.74657V10.1039C13.3331 10.5881 13.0705 11.0342 12.6472 11.2692L8.64717 13.8246C8.24457 14.0482 7.7551 14.0482 7.3525 13.8246L3.3525 11.2692C2.92942 11.0343 2.66686 10.5885 2.6665 10.1046V5.74657C2.66662 5.26239 2.92921 4.81631 3.3525 4.58124L7.3525 2.19991C7.767 1.96917 8.27134 1.96917 8.68584 2.19991L12.6858 4.58191H12.6665V4.58191Z" stroke="#1A4982" stroke-width="1.5" stroke-linecap="round" stroke-linejoin="round"/>
  <path fill-rule="evenodd" clip-rule="evenodd" d="M12.6665 4.58191C13.0821 4.82186 13.3367 5.26666 13.3332 5.74657V10.1039C13.3331 10.5881 13.0705 11.0342 12.6472 11.2692L8.64717 13.8246C8.24457 14.0482 7.7551 14.0482 7.3525 13.8246L3.3525 11.2692C2.92942 11.0343 2.66686 10.5885 2.6665 10.1046V5.74657C2.66662 5.26239 2.92921 4.81631 3.3525 4.58124L7.3525 2.19991C7.767 1.96917 8.27134 1.96917 8.68584 2.19991L12.6858 4.58191H12.6665V4.58191Z" stroke="white" stroke-opacity="0.2" stroke-width="1.5" stroke-linecap="round" stroke-linejoin="round"/>
  <path fill-rule="evenodd" clip-rule="evenodd" d="M10.3335 6.28644C10.5414 6.40648 10.6687 6.62904 10.6668 6.86911V9.04778C10.6667 9.28994 10.5353 9.51299 10.3235 9.63044L8.3235 10.9084C8.12237 11.02 7.87796 11.02 7.67683 10.9084L5.67683 9.63044C5.46526 9.51311 5.33386 9.29037 5.3335 9.04844V6.86911C5.33349 6.62709 5.46464 6.40407 5.67616 6.28644L7.67616 5.09578C7.8835 4.98044 8.13616 4.98044 8.34283 5.09578L10.3428 6.28711H10.3335V6.28644Z" stroke="#1A4982" stroke-width="1.5" stroke-linecap="round" stroke-linejoin="round"/>
  <path fill-rule="evenodd" clip-rule="evenodd" d="M10.3335 6.28644C10.5414 6.40648 10.6687 6.62904 10.6668 6.86911V9.04778C10.6667 9.28994 10.5353 9.51299 10.3235 9.63044L8.3235 10.9084C8.12237 11.02 7.87796 11.02 7.67683 10.9084L5.67683 9.63044C5.46526 9.51311 5.33386 9.29037 5.3335 9.04844V6.86911C5.33349 6.62709 5.46464 6.40407 5.67616 6.28644L7.67616 5.09578C7.8835 4.98044 8.13616 4.98044 8.34283 5.09578L10.3428 6.28711H10.3335V6.28644Z" stroke="white" stroke-opacity="0.2" stroke-width="1.5" stroke-linecap="round" stroke-linejoin="round"/>
  <path d="M8 14V8L3 5" stroke="#1A4982" stroke-width="1.5" stroke-linecap="round" stroke-linejoin="round"/>
  <path d="M8 14V8L3 5" stroke="white" stroke-opacity="0.2" stroke-width="1.5" stroke-linecap="round" stroke-linejoin="round"/>
  <path d="M8 8L13 5" stroke="#1A4982" stroke-width="1.5" stroke-linecap="round" stroke-linejoin="round"/>
  <path d="M8 8L13 5" stroke="white" stroke-opacity="0.2" stroke-width="1.5" stroke-linecap="round" stroke-linejoin="round"/>
  <path d="M7.99984 2V5" stroke="#1A4982" stroke-width="1.5" stroke-linecap="round" stroke-linejoin="round"/>
  <path d="M7.99984 2V5" stroke="white" stroke-opacity="0.2" stroke-width="1.5" stroke-linecap="round" stroke-linejoin="round"/>
  <path d="M12.9998 10.6668L10.6665 9.3335" stroke="#1A4982" stroke-width="1.5" stroke-linecap="round" stroke-linejoin="round"/>
  <path d="M12.9998 10.6668L10.6665 9.3335" stroke="white" stroke-opacity="0.2" stroke-width="1.5" stroke-linecap="round" stroke-linejoin="round"/>
  <path d="M5.33333 9.3335L3 10.6668" stroke="#1A4982" stroke-width="1.5" stroke-linecap="round" stroke-linejoin="round"/>
  <path d="M5.33333 9.3335L3 10.6668" stroke="white" stroke-opacity="0.2" stroke-width="1.5" stroke-linecap="round" stroke-linejoin="round"/>
</svg>